<?xml version="1.0" encoding="utf-8"?>
<!-- Generator: Adobe Illustrator 23.0.2, SVG Export Plug-In . SVG Version: 6.00 Build 0)  -->
<svg version="1.1" id="Layer_1" xmlns="http://www.w3.org/2000/svg" xmlns:xlink="http://www.w3.org/1999/xlink" x="0px" y="0px"
	 viewBox="0 0 843.09 100.22" style="enable-background:new 0 0 843.09 100.22;" xml:space="preserve">
<style type="text/css">
	.st0{fill:url(#SVGID_1_);}
	.st1{fill:url(#SVGID_2_);}
	.st2{fill:url(#SVGID_3_);}
	.st3{fill:url(#SVGID_4_);}
	.st4{fill:url(#SVGID_5_);}
	.st5{fill:url(#SVGID_6_);}
	.st6{fill:url(#SVGID_7_);}
	.st7{fill:url(#SVGID_8_);}
	.st8{fill:url(#SVGID_9_);}
	.st9{fill:#FFFFFF;}
	.st10{fill:#06133D;}
	.st11{fill:url(#SVGID_10_);}
	.st12{fill:url(#SVGID_11_);}
	.st13{fill:url(#SVGID_12_);}
	.st14{fill:url(#SVGID_13_);}
	.st15{fill:url(#SVGID_14_);}
	.st16{fill:url(#SVGID_15_);}
	.st17{fill:url(#SVGID_16_);}
	.st18{fill:url(#SVGID_17_);}
	.st19{fill:url(#SVGID_18_);}
	.st20{fill:url(#SVGID_19_);}
	.st21{fill:#0038FF;}
	.st22{fill:#00BDFF;}
	.st23{fill:#C600D6;}
	.st24{fill:#14161E;}
</style>
<g>
	<polygon class="st10" points="96.5,0.03 85.73,17.96 0,17.98 11.11,0.02 	"/>
	<polygon class="st10" points="68.27,100.2 79.04,82.27 164.77,82.25 153.67,100.22 	"/>
	<polygon class="st10" points="90.94,62.43 101.71,44.51 143.5,44.49 153.67,62.45 	"/>
	<polygon class="st10" points="101.61,0 42.22,100.22 64.01,100.21 123.07,0.05 	"/>
	<polygon class="st10" points="63.82,0.03 53.05,17.96 0,17.98 11.11,0.02 	"/>
	<polygon class="st10" points="164.77,82.27 154,100.2 100.95,100.22 112.06,82.25 	"/>
	<polygon class="st10" points="73.83,37.8 63.06,55.73 21.27,55.75 11.11,37.78 	"/>
	<polygon class="st10" points="0,17.98 20.46,55.75 41.5,55.75 11.11,0.02 	"/>
	<polygon class="st10" points="164.77,82.25 144.31,44.49 123.27,44.49 153.67,100.22 	"/>
</g>
<g>
	<path class="st10" d="M203.95,68.02l3.1-6.54c4.36,3.94,11.83,6.79,19.38,6.79c10.15,0,14.51-3.94,14.51-9.06
		c0-14.35-35.57-5.29-35.57-27.1c0-9.06,7.05-16.78,22.48-16.78c6.88,0,14.01,1.85,18.88,5.2l-2.77,6.71
		c-5.12-3.27-10.91-4.78-16.11-4.78c-9.98,0-14.26,4.19-14.26,9.31c0,14.35,35.57,5.37,35.57,26.93c0,8.98-7.21,16.7-22.74,16.7
		C217.46,75.4,208.65,72.38,203.95,68.02z"/>
	<path class="st10" d="M257.39,41.59h22.57v6.96h-22.57V41.59z"/>
	<path class="st10" d="M301.94,23.31v20.47h29.45v7.21h-29.45v23.74h-8.39V16.01h41.44v7.3H301.94z"/>
	<path class="st10" d="M340.53,45.37c0-17.2,13.26-30.03,31.29-30.03c17.87,0,31.12,12.75,31.12,30.03S389.69,75.4,371.82,75.4
		C353.79,75.4,340.53,62.57,340.53,45.37z M394.56,45.37c0-13-9.73-22.57-22.73-22.57c-13.17,0-22.9,9.56-22.9,22.57
		c0,13,9.73,22.57,22.9,22.57C384.83,67.94,394.56,58.37,394.56,45.37z"/>
	<path class="st10" d="M454.2,74.73l-12.67-18.04c-1.17,0.08-2.43,0.17-3.69,0.17h-14.51v17.87h-8.39V16.01h22.9
		c15.27,0,24.5,7.72,24.5,20.47c0,9.06-4.7,15.6-12.92,18.54l13.93,19.71H454.2z M453.95,36.48c0-8.39-5.62-13.17-16.36-13.17
		h-14.26v26.43h14.26C448.33,49.73,453.95,44.87,453.95,36.48z"/>
	<path class="st10" d="M515.78,45.03h8.05v22.9c-5.87,4.95-14.01,7.47-22.23,7.47c-18.04,0-31.29-12.67-31.29-30.03
		s13.26-30.03,31.46-30.03c9.31,0,17.2,3.1,22.57,9.06l-5.2,5.2c-4.87-4.7-10.4-6.8-17.03-6.8c-13.59,0-23.41,9.48-23.41,22.57
		c0,12.92,9.82,22.57,23.32,22.57c4.95,0,9.56-1.09,13.76-3.78V45.03z"/>
	<path class="st10" d="M581.64,67.43v7.3h-42.62V16.01h41.44v7.3h-33.05v18.04h29.45v7.13h-29.45v18.96H581.64z"/>
	<path class="st10" d="M616.12,16.01h8.39v51.43h31.79v7.3h-40.18V16.01z"/>
	<path class="st10" d="M702.78,60.05h-31.21l-6.46,14.68h-8.64l26.59-58.72h8.31l26.68,58.72h-8.81L702.78,60.05z M699.84,53.34
		l-12.67-28.78L674.5,53.34H699.84z"/>
	<path class="st10" d="M776.43,58.88c0,10.07-7.63,15.86-22.48,15.86h-28.02V16.01h26.34c13.51,0,21.06,5.71,21.06,15.18
		c0,6.38-3.27,10.82-7.89,13.09C772.07,46.12,776.43,51.07,776.43,58.88z M734.32,22.8v18.79h17.2c8.56,0,13.42-3.19,13.42-9.4
		s-4.87-9.4-13.42-9.4H734.32z M767.96,58.21c0-6.8-5.03-9.82-14.35-9.82h-19.29v19.55h19.29C762.93,67.94,767.96,65,767.96,58.21z"
		/>
	<path class="st10" d="M783.23,68.02l3.1-6.54c4.36,3.94,11.83,6.79,19.38,6.79c10.15,0,14.51-3.94,14.51-9.06
		c0-14.35-35.57-5.29-35.57-27.1c0-9.06,7.05-16.78,22.48-16.78c6.88,0,14.01,1.85,18.88,5.2l-2.77,6.71
		c-5.12-3.27-10.91-4.78-16.11-4.78c-9.98,0-14.26,4.19-14.26,9.31c0,14.35,35.57,5.37,35.57,26.93c0,8.98-7.21,16.7-22.74,16.7
		C796.73,75.4,787.93,72.38,783.23,68.02z"/>
</g>
</svg>
