<svg id="Layer_1" data-name="Layer 1" xmlns="http://www.w3.org/2000/svg" viewBox="0 0 843.09 100.22"><defs><style>.cls-1{fill:#06133d;}</style></defs><title>SF</title><polygon class="cls-1" points="96.5 0.04 85.73 17.96 0 17.98 11.11 0.01 96.5 0.04"/><polygon class="cls-1" points="68.27 100.2 79.04 82.27 164.77 82.25 153.66 100.22 68.27 100.2"/><polygon class="cls-1" points="90.94 62.43 101.71 44.51 143.5 44.49 153.66 62.45 90.94 62.43"/><polygon class="cls-1" points="101.61 0 42.22 100.22 64.01 100.21 123.07 0.05 101.61 0"/><polygon class="cls-1" points="63.82 0.04 53.05 17.96 0 17.98 11.11 0.01 63.82 0.04"/><polygon class="cls-1" points="164.77 82.27 154 100.2 100.95 100.22 112.06 82.25 164.77 82.27"/><polygon class="cls-1" points="73.83 37.8 63.06 55.73 21.27 55.75 11.11 37.78 73.83 37.8"/><polygon class="cls-1" points="0 17.98 20.46 55.75 41.5 55.75 11.11 0.01 0 17.98"/><polygon class="cls-1" points="164.77 82.25 144.31 44.49 123.27 44.49 153.66 100.22 164.77 82.25"/><path class="cls-1" d="M201.82,67.16l3-6.23c4.15,3.75,11.26,6.47,18.45,6.47,9.66,0,13.81-3.76,13.81-8.63,0-13.65-33.86-5-33.86-25.79,0-8.62,6.71-16,21.4-16,6.55,0,13.34,1.76,18,4.95l-2.64,6.39a28.87,28.87,0,0,0-15.33-4.55c-9.5,0-13.57,4-13.57,8.86,0,13.66,33.86,5.11,33.86,25.63,0,8.55-6.87,15.89-21.64,15.89C214.67,74.18,206.29,71.31,201.82,67.16Z"/><path class="cls-1" d="M251.16,45.6C251.16,29.23,263.78,17,281,17c17,0,29.62,12.14,29.62,28.59S298,74.18,281,74.18C263.78,74.18,251.16,62,251.16,45.6Zm51.43,0c0-12.38-9.27-21.48-21.64-21.48-12.54,0-21.8,9.1-21.8,21.48s9.26,21.48,21.8,21.48C293.32,67.08,302.59,58,302.59,45.6Z"/><path class="cls-1" d="M322,17.65h8V66.6h30.26v7H322Z"/><path class="cls-1" d="M404.48,59.57H374.77l-6.15,14H360.4l25.31-55.9h7.91L419,73.55h-8.39Zm-2.8-6.39L389.62,25.8,377.57,53.18Z"/><path class="cls-1" d="M474.58,17.65v55.9H468L434.5,31.86V73.55h-8V17.65h6.54L466.6,59.33V17.65Z"/><path class="cls-1" d="M526.17,59.57H496.46l-6.14,14h-8.23l25.31-55.9h7.91l25.39,55.9h-8.38Zm-2.8-6.39L511.32,25.8,499.26,53.18Z"/><path class="cls-1" d="M576.87,24.6V44.08h28V51h-28v22.6h-8V17.65h39.44v7Z"/><path class="cls-1" d="M613.61,45.6c0-16.37,12.61-28.59,29.78-28.59C660.4,17,673,29.15,673,45.6S660.4,74.18,643.39,74.18C626.22,74.18,613.61,62,613.61,45.6Zm51.42,0c0-12.38-9.26-21.48-21.64-21.48-12.54,0-21.8,9.1-21.8,21.48s9.26,21.48,21.8,21.48C655.77,67.08,665,58,665,45.6Z"/><path class="cls-1" d="M721.8,73.55l-12-17.17c-1.12.08-2.32.16-3.52.16H692.42v17h-8V17.65h21.8c14.54,0,23.32,7.35,23.32,19.48,0,8.63-4.47,14.86-12.3,17.65l13.26,18.77Zm-.24-36.42c0-8-5.35-12.53-15.57-12.53H692.42V49.75H706C716.21,49.75,721.56,45.12,721.56,37.13Z"/><path class="cls-1" d="M780.41,45.28h7.67v21.8c-5.59,4.71-13.34,7.1-21.16,7.1-17.17,0-29.79-12.05-29.79-28.58S749.75,17,767.08,17c8.86,0,16.37,3,21.48,8.63l-4.95,4.95a22.18,22.18,0,0,0-16.21-6.47c-12.94,0-22.28,9-22.28,21.48,0,12.3,9.34,21.48,22.2,21.48a23.6,23.6,0,0,0,13.09-3.6Z"/><path class="cls-1" d="M843.09,66.6v7H802.53V17.65H842v7H810.52V41.77h28v6.78h-28v18Z"/></svg>